<svg id="kity_svg_6" xmlns="http://www.w3.org/2000/svg" xmlns:xlink="http://www.w3.org/1999/xlink" version="1.1" width="726" height="457" style="background: rgb(251, 251, 251); visibility: visible;" viewBox="0 0 726 457"><defs id="kity_defs_7"><linearGradient id="kity_linearGradient_17" x1="0" y1="0" x2="0" y2="1"><stop id="kity_stop_18" offset="0" stop-color="rgb(255, 255, 255)"></stop><stop id="kity_stop_19" offset="1" stop-color="rgb(204, 204, 204)"></stop></linearGradient><marker id="kity_marker_4" orient="auto" refX="6" refY="0" viewBox="-7 -7 14 14" markerWidth="7" markerHeight="7" markerUnits="userSpaceOnUse"><path id="kity_path_5" fill="rgb(115, 191, 118)" stroke="none" d="M6,0A6,6,0,1,1,-6,0A6,6,0,1,1,6,0"></path></marker><marker id="kity_marker_2" orient="auto" refX="6" refY="0" viewBox="-7 -7 14 14" markerWidth="7" markerHeight="7" markerUnits="userSpaceOnUse"><path id="kity_path_3" fill="rgb(115, 191, 118)" stroke="none" d="M6,0A6,6,0,1,1,-6,0A6,6,0,1,1,6,0"></path></marker></defs><g id="kity_g_8"><g id="minder1" text-rendering="geometricPrecision"><g id="minder_connect_group1"><path id="kity_path_31" fill="none" stroke="rgb(115, 191, 118)" stroke-width="1" d="M57,238.5A52.5,173,0,0,1,109.5,65.5"></path><path id="kity_path_41" fill="none" stroke="rgb(115, 191, 118)" stroke-width="1" d="M57,238.5A52.5,13,0,0,1,109.5,225.5"></path><path id="kity_path_79" fill="none" stroke="rgb(115, 191, 118)" stroke-width="1" d="M57,238.5A52.5,173,0,0,0,109.5,411.5"></path><path id="kity_path_396" fill="none" stroke="rgb(115, 191, 118)" stroke-width="1" d="M228.5,146.5C236.5,146.5,236.5,134.5,244.5,134.5"></path><path id="kity_path_397" fill="none" stroke="rgb(115, 191, 118)" stroke-width="1" d="M228.5,146.5C236.5,146.5,236.5,158.5,244.5,158.5"></path><path id="kity_path_398" fill="none" stroke="rgb(115, 191, 118)" stroke-width="1" d="M176.5,225.5C184.5,225.5,184.5,146.5,192.5,146.5"></path><path id="kity_path_399" fill="none" stroke="rgb(115, 191, 118)" stroke-width="1" d="M294.5,194.5C302.5,194.5,302.5,182.5,310.5,182.5"></path><path id="kity_path_400" fill="none" stroke="rgb(115, 191, 118)" stroke-width="1" d="M294.5,194.5C302.5,194.5,302.5,206.5,310.5,206.5"></path><path id="kity_path_401" fill="none" stroke="rgb(115, 191, 118)" stroke-width="1" d="M228.5,212.5C236.5,212.5,236.5,194.5,244.5,194.5"></path><path id="kity_path_402" fill="none" stroke="rgb(115, 191, 118)" stroke-width="1" d="M354.5,230.5C362.5,230.5,362.5,230.5,370.5,230.5"></path><path id="kity_path_403" fill="none" stroke="rgb(115, 191, 118)" stroke-width="1" d="M228.5,212.5C236.5,212.5,236.5,230.5,244.5,230.5"></path><path id="kity_path_404" fill="none" stroke="rgb(115, 191, 118)" stroke-width="1" d="M176.5,225.5C184.5,225.5,184.5,212.5,192.5,212.5"></path><path id="kity_path_405" fill="none" stroke="rgb(115, 191, 118)" stroke-width="1" d="M402.5,254.5C410.5,254.5,410.5,254.5,418.5,254.5"></path><path id="kity_path_406" fill="none" stroke="rgb(115, 191, 118)" stroke-width="1" d="M315.5,272.5C323.5,272.5,323.5,254.5,331.5,254.5"></path><path id="kity_path_407" fill="none" stroke="rgb(115, 191, 118)" stroke-width="1" d="M439.5,290.5C447.5,290.5,447.5,278.5,455.5,278.5"></path><path id="kity_path_408" fill="none" stroke="rgb(115, 191, 118)" stroke-width="1" d="M439.5,290.5C447.5,290.5,447.5,302.5,455.5,302.5"></path><path id="kity_path_409" fill="none" stroke="rgb(115, 191, 118)" stroke-width="1" d="M315.5,272.5C323.5,272.5,323.5,290.5,331.5,290.5"></path><path id="kity_path_410" fill="none" stroke="rgb(115, 191, 118)" stroke-width="1" d="M228.5,305.5C236.5,305.5,236.5,272.5,244.5,272.5"></path><path id="kity_path_414" fill="none" stroke="rgb(115, 191, 118)" stroke-width="1" d="M228.5,305.5C236.5,305.5,236.5,338.5,244.5,338.5"></path><path id="kity_path_415" fill="none" stroke="rgb(115, 191, 118)" stroke-width="1" d="M176.5,225.5C184.5,225.5,184.5,305.5,192.5,305.5"></path><path id="kity_path_448" fill="none" stroke="rgb(115, 191, 118)" stroke-width="1" d="M631.5,381.5C639.5,381.5,639.5,381.5,647.5,381.5"></path><path id="kity_path_449" fill="none" stroke="rgb(115, 191, 118)" stroke-width="1" d="M457.5,393.5C465.5,393.5,465.5,381.5,473.5,381.5"></path><path id="kity_path_450" fill="none" stroke="rgb(115, 191, 118)" stroke-width="1" d="M457.5,393.5C465.5,393.5,465.5,405.5,473.5,405.5"></path><path id="kity_path_451" fill="none" stroke="rgb(115, 191, 118)" stroke-width="1" d="M312.5,393.5C320.5,393.5,320.5,393.5,328.5,393.5"></path><path id="kity_path_452" fill="none" stroke="rgb(115, 191, 118)" stroke-width="1" d="M176.5,411.5C184.5,411.5,184.5,393.5,192.5,393.5"></path><path id="kity_path_453" fill="none" stroke="rgb(115, 191, 118)" stroke-width="1" d="M176.5,411.5C184.5,411.5,184.5,429.5,192.5,429.5"></path><path id="kity_path_460" fill="none" stroke="rgb(115, 191, 118)" stroke-width="1" d="M303.5,338.5C311.5,338.5,311.5,326.5,319.5,326.5"></path><path id="kity_path_461" fill="none" stroke="rgb(115, 191, 118)" stroke-width="1" d="M303.5,338.5C311.5,338.5,311.5,350.5,319.5,350.5"></path><path id="kity_path_466" fill="none" stroke="rgb(115, 191, 118)" stroke-width="1" d="M201.5,65.5C209.5,65.5,209.5,29.5,217.5,29.5"></path><path id="kity_path_467" fill="none" stroke="rgb(115, 191, 118)" stroke-width="1" d="M201.5,65.5C209.5,65.5,209.5,53.5,217.5,53.5"></path><path id="kity_path_468" fill="none" stroke="rgb(115, 191, 118)" stroke-width="1" d="M201.5,65.5C209.5,65.5,209.5,77.5,217.5,77.5"></path><path id="kity_path_469" fill="none" stroke="rgb(115, 191, 118)" stroke-width="1" d="M201.5,65.5C209.5,65.5,209.5,101.5,217.5,101.5"></path></g><g id="minder_node1"><path id="kity_path_473" fill="rgba(0, 0, 0, .25)" stroke="none" d="M31.5,230.5h59a5,5,0,0,1,5,5v16a5,5,0,0,1,-5,5h-59a5,5,0,0,1,-5,-5v-16a5,5,0,0,1,5,-5z" display="none"></path><path id="node_outline1" fill="rgb(115, 191, 118)" stroke="rgb(115, 191, 118)" d="M25.5,224.5h63a5,5,0,0,1,5,5v18a5,5,0,0,1,-5,5h-63a5,5,0,0,1,-5,-5v-18a5,5,0,0,1,5,-5z" stroke-width="3"></path><g id="node_text1" fill="white"><text id="kity_text_22" text-rendering="inherit" font-size="16" dy=".8em" y="228.09999990463257" x="32.5">关于我</text></g></g><g id="kity_g_14" display="none"><path id="kity_path_15" fill="none" stroke="none" d="M32.5,238.5h0v0h0z"></path><path id="kity_path_16" fill="none" stroke="none"></path></g><g id="minder_node2" opacity="1"><path id="kity_path_470" fill="rgba(0, 0, 0, .25)" stroke="none" d="M130.5,61.5h60a5,5,0,0,1,5,5v8a5,5,0,0,1,-5,5h-60a5,5,0,0,1,-5,-5v-8a5,5,0,0,1,5,-5z" display="none"></path><g id="node_expander5" style="cursor: pointer;"><path id="kity_path_168" fill="white" stroke="gray" d="M110.5,65.5A6,6,0,1,1,98.5,65.5A6,6,0,1,1,110.5,65.5"></path><path id="kity_path_169" fill="none" stroke="gray" d="M100,65.5L109,65.5"></path></g><path id="node_outline6" fill="rgb(238, 246, 238)" stroke="rgb(115, 191, 118)" d="M114.5,54.5h84a3,3,0,0,1,3,3v16a3,3,0,0,1,-3,3h-84a3,3,0,0,1,-3,-3v-16a3,3,0,0,1,3,-3z" stroke-width="1"></path><g id="node_text6" fill="black"><text id="kity_text_89" text-rendering="inherit" font-size="10" dy=".8em" y="59" font-family="微软雅黑,Microsoft YaHei" x="131.5">理论知识</text></g></g><g id="minder_node7" opacity="1"><path id="kity_path_471" fill="rgba(0, 0, 0, .25)" stroke="none" d="M130.5,221.5h35a5,5,0,0,1,5,5v8a5,5,0,0,1,-5,5h-35a5,5,0,0,1,-5,-5v-8a5,5,0,0,1,5,-5z" display="none"></path><g id="node_expander24" style="cursor: pointer;"><path id="kity_path_225" fill="white" stroke="gray" d="M110.5,225.5A6,6,0,1,1,98.5,225.5A6,6,0,1,1,110.5,225.5"></path><path id="kity_path_226" fill="none" stroke="gray" d="M100,225.5L109,225.5"></path></g><path id="node_outline25" fill="rgb(238, 246, 238)" stroke="rgb(115, 191, 118)" d="M114.5,214.5h59a3,3,0,0,1,3,3v16a3,3,0,0,1,-3,3h-59a3,3,0,0,1,-3,-3v-16a3,3,0,0,1,3,-3z" stroke-width="1"></path><g id="node_text25" fill="black"><text id="kity_text_127" text-rendering="inherit" font-size="10" dy=".8em" y="219" font-family="微软雅黑,Microsoft YaHei" x="131.5">技能</text></g></g><g id="minder_node26" opacity="1"><path id="kity_path_472" fill="rgba(0, 0, 0, .25)" stroke="none" d="M130.5,407.5h35a5,5,0,0,1,5,5v8a5,5,0,0,1,-5,5h-35a5,5,0,0,1,-5,-5v-8a5,5,0,0,1,5,-5z" display="none"></path><g id="node_expander25" style="cursor: pointer;"><path id="kity_path_228" fill="white" stroke="gray" d="M110.5,411.5A6,6,0,1,1,98.5,411.5A6,6,0,1,1,110.5,411.5"></path><path id="kity_path_229" fill="none" stroke="gray" d="M100,411.5L109,411.5"></path></g><path id="node_outline26" fill="rgb(238, 246, 238)" stroke="rgb(115, 191, 118)" d="M114.5,400.5h59a3,3,0,0,1,3,3v16a3,3,0,0,1,-3,3h-59a3,3,0,0,1,-3,-3v-16a3,3,0,0,1,3,-3z" stroke-width="1"></path><g id="node_text26" fill="black"><text id="kity_text_129" text-rendering="inherit" font-size="10" dy=".8em" y="405" font-family="微软雅黑,Microsoft YaHei" x="131.5">远景</text></g></g><g id="kity_g_12" display="none"><path id="kity_path_13" fill="none" stroke="rgb(66, 112, 68)" d="M453.5,322.5h71a5,5,0,0,1,5,5v12a5,5,0,0,1,-5,5h-71a5,5,0,0,1,-5,-5v-12a5,5,0,0,1,5,-5z" stroke-width="5"></path></g><g id="minder_node9"><path id="kity_path_478" fill="rgba(0, 0, 0, .25)" stroke="none" d="M307.5,79.5h0a60,60,0,0,1,60,60v0a60,60,0,0,1,-60,60h0a60,60,0,0,1,-60,-60v0a60,60,0,0,1,60,-60z" display="none"></path><g id="node_expander6" style="cursor: pointer;" display="none"><path id="kity_path_171" fill="white" stroke="gray" d="M244.5,134.5A6,6,0,1,1,232.5,134.5A6,6,0,1,1,244.5,134.5"></path><path id="kity_path_172" fill="none" stroke="gray"></path></g><path id="node_outline7" fill="none" stroke="none" d="M249.5,126.5h108a5,5,0,0,1,5,5v6a5,5,0,0,1,-5,5h-108a5,5,0,0,1,-5,-5v-6a5,5,0,0,1,5,-5z" stroke-width="3"></path><g id="node_text7" fill="black"><text id="kity_text_91" text-rendering="inherit" font-size="10" dy=".8em" y="128" font-family="微软雅黑,Microsoft YaHei" x="249.5">PCB制版绘图、焊接</text></g></g><g id="minder_node10"><path id="kity_path_479" fill="rgba(0, 0, 0, .25)" stroke="none" d="M300,111.5h0a52,52,0,0,1,52,52v0a52,52,0,0,1,-52,52h0a52,52,0,0,1,-52,-52v0a52,52,0,0,1,52,-52z" display="none"></path><g id="node_expander7" style="cursor: pointer;" display="none"><path id="kity_path_174" fill="white" stroke="gray" d="M244.5,158.5A6,6,0,1,1,232.5,158.5A6,6,0,1,1,244.5,158.5"></path><path id="kity_path_175" fill="none" stroke="gray"></path></g><path id="node_outline8" fill="none" stroke="none" d="M249.5,150.5h93a5,5,0,0,1,5,5v6a5,5,0,0,1,-5,5h-93a5,5,0,0,1,-5,-5v-6a5,5,0,0,1,5,-5z" stroke-width="3"></path><g id="node_text8" fill="black"><text id="kity_text_93" text-rendering="inherit" font-size="10" dy=".8em" y="152" font-family="微软雅黑,Microsoft YaHei" x="249.5">嵌入式开发、Ros</text></g></g><g id="minder_node8"><path id="kity_path_480" fill="rgba(0, 0, 0, .25)" stroke="none" d="M214.5,130.5h0a21,21,0,0,1,21,21v0a21,21,0,0,1,-21,21h0a21,21,0,0,1,-21,-21v0a21,21,0,0,1,21,-21z" display="none"></path><g id="node_expander9" style="cursor: pointer;"><path id="kity_path_180" fill="white" stroke="gray" d="M192.5,146.5A6,6,0,1,1,180.5,146.5A6,6,0,1,1,192.5,146.5"></path><path id="kity_path_181" fill="none" stroke="gray" d="M182,146.5L191,146.5"></path></g><path id="node_outline10" fill="none" stroke="none" d="M197.5,138.5h26a5,5,0,0,1,5,5v6a5,5,0,0,1,-5,5h-26a5,5,0,0,1,-5,-5v-6a5,5,0,0,1,5,-5z" stroke-width="3"></path><g id="node_text10" fill="black"><text id="kity_text_97" text-rendering="inherit" font-size="10" dy=".8em" y="140" font-family="微软雅黑,Microsoft YaHei" x="197.5">硬件</text></g></g><g id="minder_node14"><path id="kity_path_481" fill="rgba(0, 0, 0, .25)" stroke="none" d="M399.5,101.5h0a86,86,0,0,1,86,86v0a86,86,0,0,1,-86,86h0a86,86,0,0,1,-86,-86v0a86,86,0,0,1,86,-86z" display="none"></path><g id="node_expander10" style="cursor: pointer;" display="none"><path id="kity_path_183" fill="white" stroke="gray" d="M310.5,182.5A6,6,0,1,1,298.5,182.5A6,6,0,1,1,310.5,182.5"></path><path id="kity_path_184" fill="none" stroke="gray"></path></g><path id="node_outline11" fill="none" stroke="none" d="M315.5,174.5h160a5,5,0,0,1,5,5v6a5,5,0,0,1,-5,5h-160a5,5,0,0,1,-5,-5v-6a5,5,0,0,1,5,-5z" stroke-width="3"></path><g id="node_text11" fill="black"><text id="kity_text_99" text-rendering="inherit" font-size="10" dy=".8em" y="176" font-family="微软雅黑,Microsoft YaHei" x="315.5">github 、gitlab、coding.net</text></g></g><g id="minder_node15"><path id="kity_path_482" fill="rgba(0, 0, 0, .25)" stroke="none" d="M413,112.5h0a99,99,0,0,1,99,99v0a99,99,0,0,1,-99,99h0a99,99,0,0,1,-99,-99v0a99,99,0,0,1,99,-99z" display="none"></path><g id="node_expander11" style="cursor: pointer;" display="none"><path id="kity_path_186" fill="white" stroke="gray" d="M310.5,206.5A6,6,0,1,1,298.5,206.5A6,6,0,1,1,310.5,206.5"></path><path id="kity_path_187" fill="none" stroke="gray"></path></g><path id="node_outline12" fill="none" stroke="none" d="M315.5,198.5h187a5,5,0,0,1,5,5v6a5,5,0,0,1,-5,5h-187a5,5,0,0,1,-5,-5v-6a5,5,0,0,1,5,-5z" stroke-width="3"></path><g id="node_text12" fill="black"><text id="kity_text_101" text-rendering="inherit" font-size="10" dy=".8em" y="200" font-family="微软雅黑,Microsoft YaHei" x="315.5">matlab、python、java、c 、html</text></g></g><g id="minder_node13"><path id="kity_path_483" fill="rgba(0, 0, 0, .25)" stroke="none" d="M273.5,172.5h0a27,27,0,0,1,27,27v0a27,27,0,0,1,-27,27h0a27,27,0,0,1,-27,-27v0a27,27,0,0,1,27,-27z" display="none"></path><g id="node_expander12" style="cursor: pointer;"><path id="kity_path_189" fill="white" stroke="gray" d="M244.5,194.5A6,6,0,1,1,232.5,194.5A6,6,0,1,1,244.5,194.5"></path><path id="kity_path_190" fill="none" stroke="gray" d="M234,194.5L243,194.5"></path></g><path id="node_outline13" fill="none" stroke="none" d="M249.5,186.5h40a5,5,0,0,1,5,5v6a5,5,0,0,1,-5,5h-40a5,5,0,0,1,-5,-5v-6a5,5,0,0,1,5,-5z" stroke-width="3"></path><g id="node_text13" fill="black"><text id="kity_text_103" text-rendering="inherit" font-size="10" dy=".8em" y="188" font-family="微软雅黑,Microsoft YaHei" x="249.5">coding</text></g></g><g id="minder_node39"><path id="kity_path_484" fill="rgba(0, 0, 0, .25)" stroke="none" d="M445,164.5h0a71,71,0,0,1,71,71v0a71,71,0,0,1,-71,71h0a71,71,0,0,1,-71,-71v0a71,71,0,0,1,71,-71z" display="none"></path><g id="node_expander38" style="cursor: pointer;" display="none"><path id="kity_path_332" fill="white" stroke="gray" d="M370.5,230.5A6,6,0,1,1,358.5,230.5A6,6,0,1,1,370.5,230.5"></path><path id="kity_path_333" fill="none" stroke="gray"></path></g><path id="node_outline39" fill="none" stroke="none" d="M375.5,222.5h131a5,5,0,0,1,5,5v6a5,5,0,0,1,-5,5h-131a5,5,0,0,1,-5,-5v-6a5,5,0,0,1,5,-5z" stroke-width="3"></path><g id="node_text39" fill="black"><text id="kity_text_329" text-rendering="inherit" font-size="10" dy=".8em" y="224" font-family="微软雅黑,Microsoft YaHei" x="375.5">nginx、apache、mysql</text></g></g><g id="minder_node38"><path id="kity_path_485" fill="rgba(0, 0, 0, .25)" stroke="none" d="M303.5,179.5h0a56,56,0,0,1,56,56v0a56,56,0,0,1,-56,56h0a56,56,0,0,1,-56,-56v0a56,56,0,0,1,56,-56z" display="none"></path><g id="node_expander37" style="cursor: pointer;"><path id="kity_path_324" fill="white" stroke="gray" d="M244.5,230.5A6,6,0,1,1,232.5,230.5A6,6,0,1,1,244.5,230.5"></path><path id="kity_path_325" fill="none" stroke="gray" d="M234,230.5L243,230.5"></path></g><path id="node_outline38" fill="none" stroke="none" d="M249.5,222.5h100a5,5,0,0,1,5,5v6a5,5,0,0,1,-5,5h-100a5,5,0,0,1,-5,-5v-6a5,5,0,0,1,5,-5z" stroke-width="3"></path><g id="node_text38" fill="black"><text id="kity_text_321" text-rendering="inherit" font-size="10" dy=".8em" y="224" font-family="微软雅黑,Microsoft YaHei" x="249.5">ubuntu 14.04 LTS</text></g></g><g id="minder_node12"><path id="kity_path_486" fill="rgba(0, 0, 0, .25)" stroke="none" d="M214.5,196.5h0a21,21,0,0,1,21,21v0a21,21,0,0,1,-21,21h0a21,21,0,0,1,-21,-21v0a21,21,0,0,1,21,-21z" display="none"></path><g id="node_expander17" style="cursor: pointer;"><path id="kity_path_204" fill="white" stroke="gray" d="M192.5,212.5A6,6,0,1,1,180.5,212.5A6,6,0,1,1,192.5,212.5"></path><path id="kity_path_205" fill="none" stroke="gray" d="M182,212.5L191,212.5"></path></g><path id="node_outline18" fill="none" stroke="none" d="M197.5,204.5h26a5,5,0,0,1,5,5v6a5,5,0,0,1,-5,5h-26a5,5,0,0,1,-5,-5v-6a5,5,0,0,1,5,-5z" stroke-width="3"></path><g id="node_text18" fill="black"><text id="kity_text_113" text-rendering="inherit" font-size="10" dy=".8em" y="206" font-family="微软雅黑,Microsoft YaHei" x="197.5">软件</text></g></g><g id="minder_node29"><path id="kity_path_487" fill="rgba(0, 0, 0, .25)" stroke="none" d="M488.5,192.5h0a67,67,0,0,1,67,67v0a67,67,0,0,1,-67,67h0a67,67,0,0,1,-67,-67v0a67,67,0,0,1,67,-67z" display="none"></path><g id="node_expander28" style="cursor: pointer;" display="none"><path id="kity_path_252" fill="white" stroke="gray" d="M418.5,254.5A6,6,0,1,1,406.5,254.5A6,6,0,1,1,418.5,254.5"></path><path id="kity_path_253" fill="none" stroke="gray"></path></g><path id="node_outline29" fill="none" stroke="none" d="M423.5,246.5h122a5,5,0,0,1,5,5v6a5,5,0,0,1,-5,5h-122a5,5,0,0,1,-5,-5v-6a5,5,0,0,1,5,-5z" stroke-width="3"></path><g id="node_text29" fill="black"><text id="kity_text_249" text-rendering="inherit" font-size="10" dy=".8em" y="248" font-family="微软雅黑,Microsoft YaHei" x="423.5">膨胀、腐蚀、模板匹配</text></g></g><g id="minder_node22"><path id="kity_path_488" fill="rgba(0, 0, 0, .25)" stroke="none" d="M371,222.5h0a37,37,0,0,1,37,37v0a37,37,0,0,1,-37,37h0a37,37,0,0,1,-37,-37v0a37,37,0,0,1,37,-37z" display="none"></path><g id="node_expander19" style="cursor: pointer;"><path id="kity_path_210" fill="white" stroke="gray" d="M331.5,254.5A6,6,0,1,1,319.5,254.5A6,6,0,1,1,331.5,254.5"></path><path id="kity_path_211" fill="none" stroke="gray" d="M321,254.5L330,254.5"></path></g><path id="node_outline20" fill="none" stroke="none" d="M336.5,246.5h61a5,5,0,0,1,5,5v6a5,5,0,0,1,-5,5h-61a5,5,0,0,1,-5,-5v-6a5,5,0,0,1,5,-5z" stroke-width="3"></path><g id="node_text20" fill="black"><text id="kity_text_117" text-rendering="inherit" font-size="10" dy=".8em" y="248" font-family="微软雅黑,Microsoft YaHei" x="336.5">传统图形学</text></g></g><g id="minder_node27"><path id="kity_path_489" fill="rgba(0, 0, 0, .25)" stroke="none" d="M484.5,256.5h0a27,27,0,0,1,27,27v0a27,27,0,0,1,-27,27h0a27,27,0,0,1,-27,-27v0a27,27,0,0,1,27,-27z" display="none"></path><g id="node_expander26" style="cursor: pointer;" display="none"><path id="kity_path_236" fill="white" stroke="gray" d="M455.5,278.5A6,6,0,1,1,443.5,278.5A6,6,0,1,1,455.5,278.5"></path><path id="kity_path_237" fill="none" stroke="gray"></path></g><path id="node_outline27" fill="none" stroke="none" d="M460.5,270.5h40a5,5,0,0,1,5,5v6a5,5,0,0,1,-5,5h-40a5,5,0,0,1,-5,-5v-6a5,5,0,0,1,5,-5z" stroke-width="3"></path><g id="node_text27" fill="black"><text id="kity_text_233" text-rendering="inherit" font-size="10" dy=".8em" y="272" font-family="微软雅黑,Microsoft YaHei" x="460.5">cs231n</text></g></g><g id="minder_node28"><path id="kity_path_490" fill="rgba(0, 0, 0, .25)" stroke="none" d="M499.5,266.5h0a41,41,0,0,1,41,41v0a41,41,0,0,1,-41,41h0a41,41,0,0,1,-41,-41v0a41,41,0,0,1,41,-41z" display="none"></path><g id="node_expander27" style="cursor: pointer;" display="none"><path id="kity_path_244" fill="white" stroke="gray" d="M455.5,302.5A6,6,0,1,1,443.5,302.5A6,6,0,1,1,455.5,302.5"></path><path id="kity_path_245" fill="none" stroke="gray"></path></g><path id="node_outline28" fill="none" stroke="none" d="M460.5,294.5h70a5,5,0,0,1,5,5v6a5,5,0,0,1,-5,5h-70a5,5,0,0,1,-5,-5v-6a5,5,0,0,1,5,-5z" stroke-width="3"></path><g id="node_text28" fill="black"><text id="kity_text_241" text-rendering="inherit" font-size="10" dy=".8em" y="296" font-family="微软雅黑,Microsoft YaHei" x="460.5">caffe、torch</text></g></g><g id="minder_node25" opacity="1"><path id="kity_path_491" fill="rgba(0, 0, 0, .25)" stroke="none" d="M389.5,240.5h0a55,55,0,0,1,55,55v0a55,55,0,0,1,-55,55h0a55,55,0,0,1,-55,-55v0a55,55,0,0,1,55,-55z" display="none"></path><g id="node_expander20" style="cursor: pointer;"><path id="kity_path_213" fill="white" stroke="gray" d="M331.5,290.5A6,6,0,1,1,319.5,290.5A6,6,0,1,1,331.5,290.5"></path><path id="kity_path_214" fill="none" stroke="gray" d="M321,290.5L330,290.5"></path></g><path id="node_outline21" fill="none" stroke="none" d="M336.5,282.5h98a5,5,0,0,1,5,5v6a5,5,0,0,1,-5,5h-98a5,5,0,0,1,-5,-5v-6a5,5,0,0,1,5,-5z" stroke-width="3"></path><g id="node_text21" fill="black"><text id="kity_text_119" text-rendering="inherit" font-size="10" dy=".8em" y="284" font-family="微软雅黑,Microsoft YaHei" x="336.5">人工神经卷积网络</text></g></g><g id="minder_node21"><path id="kity_path_492" fill="rgba(0, 0, 0, .25)" stroke="none" d="M284,240.5h0a37,37,0,0,1,37,37v0a37,37,0,0,1,-37,37h0a37,37,0,0,1,-37,-37v0a37,37,0,0,1,37,-37z" display="none"></path><g id="node_expander22" style="cursor: pointer;"><path id="kity_path_219" fill="white" stroke="gray" d="M244.5,272.5A6,6,0,1,1,232.5,272.5A6,6,0,1,1,244.5,272.5"></path><path id="kity_path_220" fill="none" stroke="gray" d="M234,272.5L243,272.5"></path></g><path id="node_outline23" fill="none" stroke="none" d="M249.5,264.5h61a5,5,0,0,1,5,5v6a5,5,0,0,1,-5,5h-61a5,5,0,0,1,-5,-5v-6a5,5,0,0,1,5,-5z" stroke-width="3"></path><g id="node_text23" fill="black"><text id="kity_text_123" text-rendering="inherit" font-size="10" dy=".8em" y="266" font-family="微软雅黑,Microsoft YaHei" x="249.5">计算机视觉</text></g></g><g id="minder_node30" opacity="1"><path id="kity_path_495" fill="rgba(0, 0, 0, .25)" stroke="none" d="M278,312.5h0a31,31,0,0,1,31,31v0a31,31,0,0,1,-31,31h0a31,31,0,0,1,-31,-31v0a31,31,0,0,1,31,-31z" display="none"></path><g id="node_expander29" style="cursor: pointer;"><path id="kity_path_260" fill="white" stroke="gray" d="M244.5,338.5A6,6,0,1,1,232.5,338.5A6,6,0,1,1,244.5,338.5"></path><path id="kity_path_261" fill="none" stroke="gray" d="M234,338.5L243,338.5"></path></g><path id="node_outline30" fill="none" stroke="none" d="M249.5,330.5h49a5,5,0,0,1,5,5v6a5,5,0,0,1,-5,5h-49a5,5,0,0,1,-5,-5v-6a5,5,0,0,1,5,-5z" stroke-width="3"></path><g id="node_text30" fill="black"><text id="kity_text_257" text-rendering="inherit" font-size="10" dy=".8em" y="332" font-family="微软雅黑,Microsoft YaHei" x="249.5">数据挖掘</text></g></g><g id="minder_node20"><path id="kity_path_496" fill="rgba(0, 0, 0, .25)" stroke="none" d="M214.5,289.5h0a21,21,0,0,1,21,21v0a21,21,0,0,1,-21,21h0a21,21,0,0,1,-21,-21v0a21,21,0,0,1,21,-21z" display="none"></path><g id="node_expander23" style="cursor: pointer;"><path id="kity_path_222" fill="white" stroke="gray" d="M192.5,305.5A6,6,0,1,1,180.5,305.5A6,6,0,1,1,192.5,305.5"></path><path id="kity_path_223" fill="none" stroke="gray" d="M182,305.5L191,305.5"></path></g><path id="node_outline24" fill="none" stroke="none" d="M197.5,297.5h26a5,5,0,0,1,5,5v6a5,5,0,0,1,-5,5h-26a5,5,0,0,1,-5,-5v-6a5,5,0,0,1,5,-5z" stroke-width="3"></path><g id="node_text24" fill="black"><text id="kity_text_125" text-rendering="inherit" font-size="10" dy=".8em" y="299" font-family="微软雅黑,Microsoft YaHei" x="197.5">算法</text></g></g><g id="minder_node43"><path id="kity_path_497" fill="rgba(0, 0, 0, .25)" stroke="none" d="M681,355.5h0a31,31,0,0,1,31,31v0a31,31,0,0,1,-31,31h0a31,31,0,0,1,-31,-31v0a31,31,0,0,1,31,-31z" display="none"></path><g id="node_expander42" style="cursor: pointer;" display="none"><path id="kity_path_364" fill="white" stroke="gray" d="M647.5,381.5A6,6,0,1,1,635.5,381.5A6,6,0,1,1,647.5,381.5"></path><path id="kity_path_365" fill="none" stroke="gray"></path></g><path id="node_outline43" fill="none" stroke="none" d="M652.5,373.5h49a5,5,0,0,1,5,5v6a5,5,0,0,1,-5,5h-49a5,5,0,0,1,-5,-5v-6a5,5,0,0,1,5,-5z" stroke-width="3"></path><g id="node_text43" fill="black"><text id="kity_text_361" text-rendering="inherit" font-size="10" dy=".8em" y="375" font-family="微软雅黑,Microsoft YaHei" x="652.5">智能应用</text></g></g><g id="minder_node42"><path id="kity_path_498" fill="rgba(0, 0, 0, .25)" stroke="none" d="M556.5,306.5h0a80,80,0,0,1,80,80v0a80,80,0,0,1,-80,80h0a80,80,0,0,1,-80,-80v0a80,80,0,0,1,80,-80z" display="none"></path><g id="node_expander41" style="cursor: pointer;"><path id="kity_path_356" fill="white" stroke="gray" d="M473.5,381.5A6,6,0,1,1,461.5,381.5A6,6,0,1,1,473.5,381.5"></path><path id="kity_path_357" fill="none" stroke="gray" d="M463,381.5L472,381.5"></path></g><path id="node_outline42" fill="none" stroke="none" d="M478.5,373.5h148a5,5,0,0,1,5,5v6a5,5,0,0,1,-5,5h-148a5,5,0,0,1,-5,-5v-6a5,5,0,0,1,5,-5z" stroke-width="3"></path><g id="node_text42" fill="black"><text id="kity_text_353" text-rendering="inherit" font-size="10" dy=".8em" y="375" font-family="微软雅黑,Microsoft YaHei" x="478.5">AI视觉、讯飞API、高德API</text></g></g><g id="minder_node44"><path id="kity_path_499" fill="rgba(0, 0, 0, .25)" stroke="none" d="M561.5,325.5h0a85,85,0,0,1,85,85v0a85,85,0,0,1,-85,85h0a85,85,0,0,1,-85,-85v0a85,85,0,0,1,85,-85z" display="none"></path><g id="node_expander43" style="cursor: pointer;" display="none"><path id="kity_path_372" fill="white" stroke="gray" d="M473.5,405.5A6,6,0,1,1,461.5,405.5A6,6,0,1,1,473.5,405.5"></path><path id="kity_path_373" fill="none" stroke="gray"></path></g><path id="node_outline44" fill="none" stroke="none" d="M478.5,397.5h158a5,5,0,0,1,5,5v6a5,5,0,0,1,-5,5h-158a5,5,0,0,1,-5,-5v-6a5,5,0,0,1,5,-5z" stroke-width="3"></path><g id="node_text44" fill="black"><text id="kity_text_369" text-rendering="inherit" font-size="10" dy=".8em" y="399" font-family="微软雅黑,Microsoft YaHei" x="478.5">web网页，客户端，服务器端</text></g></g><g id="minder_node41"><path id="kity_path_500" fill="rgba(0, 0, 0, .25)" stroke="none" d="M397,333.5h0a65,65,0,0,1,65,65v0a65,65,0,0,1,-65,65h0a65,65,0,0,1,-65,-65v0a65,65,0,0,1,65,-65z" display="none"></path><g id="node_expander40" style="cursor: pointer;"><path id="kity_path_348" fill="white" stroke="gray" d="M328.5,393.5A6,6,0,1,1,316.5,393.5A6,6,0,1,1,328.5,393.5"></path><path id="kity_path_349" fill="none" stroke="gray" d="M318,393.5L327,393.5"></path></g><path id="node_outline41" fill="none" stroke="none" d="M333.5,385.5h119a5,5,0,0,1,5,5v6a5,5,0,0,1,-5,5h-119a5,5,0,0,1,-5,-5v-6a5,5,0,0,1,5,-5z" stroke-width="3"></path><g id="node_text41" fill="black"><text id="kity_text_345" text-rendering="inherit" font-size="10" dy=".8em" y="387" font-family="微软雅黑,Microsoft YaHei" x="333.5">底层驱动、ros、linux</text></g></g><g id="minder_node40"><path id="kity_path_501" fill="rgba(0, 0, 0, .25)" stroke="none" d="M256.5,337.5h0a61,61,0,0,1,61,61v0a61,61,0,0,1,-61,61h0a61,61,0,0,1,-61,-61v0a61,61,0,0,1,61,-61z" display="none"></path><g id="node_expander39" style="cursor: pointer;"><path id="kity_path_340" fill="white" stroke="gray" d="M192.5,393.5A6,6,0,1,1,180.5,393.5A6,6,0,1,1,192.5,393.5"></path><path id="kity_path_341" fill="none" stroke="gray" d="M182,393.5L191,393.5"></path></g><path id="node_outline40" fill="none" stroke="none" d="M197.5,385.5h110a5,5,0,0,1,5,5v6a5,5,0,0,1,-5,5h-110a5,5,0,0,1,-5,-5v-6a5,5,0,0,1,5,-5z" stroke-width="3"></path><g id="node_text40" fill="black"><text id="kity_text_337" text-rendering="inherit" font-size="10" dy=".8em" y="387" font-family="微软雅黑,Microsoft YaHei" x="197.5">硬件设计、电路测试</text></g></g><g id="minder_node46"><path id="kity_path_502" fill="rgba(0, 0, 0, .25)" stroke="none" d="M295.5,334.5h0a100,100,0,0,1,100,100v0a100,100,0,0,1,-100,100h0a100,100,0,0,1,-100,-100v0a100,100,0,0,1,100,-100z" display="none"></path><g id="node_expander45" style="cursor: pointer;" display="none"><path id="kity_path_388" fill="white" stroke="gray" d="M192.5,429.5A6,6,0,1,1,180.5,429.5A6,6,0,1,1,192.5,429.5"></path><path id="kity_path_389" fill="none" stroke="gray"></path></g><path id="node_outline46" fill="none" stroke="none" d="M197.5,421.5h188a5,5,0,0,1,5,5v6a5,5,0,0,1,-5,5h-188a5,5,0,0,1,-5,-5v-6a5,5,0,0,1,5,-5z" stroke-width="3"></path><g id="node_text46" fill="black"><text id="kity_text_385" text-rendering="inherit" font-size="10" dy=".8em" y="423" font-family="微软雅黑,Microsoft YaHei" x="197.5">协调、管理、vision 、passiontion</text></g></g><g id="minder_node31"><path id="kity_path_493" fill="rgba(0, 0, 0, .25)" stroke="none" d="M358.5,295.5h0a36,36,0,0,1,36,36v0a36,36,0,0,1,-36,36h0a36,36,0,0,1,-36,-36v0a36,36,0,0,1,36,-36z" display="none"></path><g id="node_expander30" style="cursor: pointer;" display="none"><path id="kity_path_268" fill="white" stroke="gray" d="M319.5,326.5A6,6,0,1,1,307.5,326.5A6,6,0,1,1,319.5,326.5"></path><path id="kity_path_269" fill="none" stroke="gray" d="M309,326.5L318,326.5"></path></g><path id="node_outline31" fill="none" stroke="none" d="M324.5,318.5h60a5,5,0,0,1,5,5v6a5,5,0,0,1,-5,5h-60a5,5,0,0,1,-5,-5v-6a5,5,0,0,1,5,-5z" stroke-width="3"></path><g id="node_text31" fill="black"><text id="kity_text_265" text-rendering="inherit" font-size="10" dy=".8em" y="320" font-family="微软雅黑,Microsoft YaHei" x="324.5">聚类、svm</text></g></g><g id="minder_node33"><path id="kity_path_494" fill="rgba(0, 0, 0, .25)" stroke="none" d="M395.5,282.5h0a73,73,0,0,1,73,73v0a73,73,0,0,1,-73,73h0a73,73,0,0,1,-73,-73v0a73,73,0,0,1,73,-73z" display="none"></path><g id="node_expander32" style="cursor: pointer;" display="none"><path id="kity_path_284" fill="white" stroke="gray" d="M319.5,350.5A6,6,0,1,1,307.5,350.5A6,6,0,1,1,319.5,350.5"></path><path id="kity_path_285" fill="none" stroke="gray" d="M309,350.5L318,350.5"></path></g><path id="node_outline33" fill="none" stroke="none" d="M324.5,342.5h134a5,5,0,0,1,5,5v6a5,5,0,0,1,-5,5h-134a5,5,0,0,1,-5,-5v-6a5,5,0,0,1,5,-5z" stroke-width="3"></path><g id="node_text33" fill="black"><text id="kity_text_281" text-rendering="inherit" font-size="10" dy=".8em" y="344" font-family="微软雅黑,Microsoft YaHei" x="324.5">遗传，蚁群，蜂群，杂草</text></g></g><g id="minder_node3"><path id="kity_path_474" fill="rgba(0, 0, 0, .25)" stroke="none" d="M293.5,-38.5h0a73,73,0,0,1,73,73v0a73,73,0,0,1,-73,73h0a73,73,0,0,1,-73,-73v0a73,73,0,0,1,73,-73z" display="none"></path><g id="node_expander1" style="cursor: pointer;" display="none"><path id="kity_path_156" fill="white" stroke="gray" d="M217.5,29.5A6,6,0,1,1,205.5,29.5A6,6,0,1,1,217.5,29.5"></path><path id="kity_path_157" fill="none" stroke="gray"></path></g><path id="node_outline2" fill="none" stroke="none" d="M222.5,21.5h134a5,5,0,0,1,5,5v6a5,5,0,0,1,-5,5h-134a5,5,0,0,1,-5,-5v-6a5,5,0,0,1,5,-5z" stroke-width="3"></path><g id="node_text2" fill="black"><text id="kity_text_81" text-rendering="inherit" font-size="10" dy=".8em" y="23" font-family="微软雅黑,Microsoft YaHei" x="222.5">高数，微积分、概率统计</text></g></g><g id="minder_node4"><path id="kity_path_475" fill="rgba(0, 0, 0, .25)" stroke="none" d="M311.5,-32.5h0a91,91,0,0,1,91,91v0a91,91,0,0,1,-91,91h0a91,91,0,0,1,-91,-91v0a91,91,0,0,1,91,-91z" display="none"></path><g id="node_expander2" style="cursor: pointer;" display="none"><path id="kity_path_159" fill="white" stroke="gray" d="M217.5,53.5A6,6,0,1,1,205.5,53.5A6,6,0,1,1,217.5,53.5"></path><path id="kity_path_160" fill="none" stroke="gray"></path></g><path id="node_outline3" fill="none" stroke="none" d="M222.5,45.5h170a5,5,0,0,1,5,5v6a5,5,0,0,1,-5,5h-170a5,5,0,0,1,-5,-5v-6a5,5,0,0,1,5,-5z" stroke-width="3"></path><g id="node_text3" fill="black"><text id="kity_text_83" text-rendering="inherit" font-size="10" dy=".8em" y="47" font-family="微软雅黑,Microsoft YaHei" x="222.5">数据结构、面向对象、操作系统</text></g></g><g id="minder_node5"><path id="kity_path_476" fill="rgba(0, 0, 0, .25)" stroke="none" d="M359.5,-55.5h0a138,138,0,0,1,138,138v0a138,138,0,0,1,-138,138h0a138,138,0,0,1,-138,-138v0a138,138,0,0,1,138,-138z" display="none"></path><g id="node_expander3" style="cursor: pointer;" display="none"><path id="kity_path_162" fill="white" stroke="gray" d="M217.5,77.5A6,6,0,1,1,205.5,77.5A6,6,0,1,1,217.5,77.5"></path><path id="kity_path_163" fill="none" stroke="gray"></path></g><path id="node_outline4" fill="none" stroke="none" d="M222.5,69.5h266a5,5,0,0,1,5,5v6a5,5,0,0,1,-5,5h-266a5,5,0,0,1,-5,-5v-6a5,5,0,0,1,5,-5z" stroke-width="3"></path><g id="node_text4" fill="black"><text id="kity_text_85" text-rendering="inherit" font-size="10" dy=".8em" y="71" font-family="微软雅黑,Microsoft YaHei" x="222.5">数字电路、模拟电路、集成电路、高频、通信原理</text></g></g><g id="minder_node6"><path id="kity_path_477" fill="rgba(0, 0, 0, .25)" stroke="none" d="M281,46.5h0a60,60,0,0,1,60,60v0a60,60,0,0,1,-60,60h0a60,60,0,0,1,-60,-60v0a60,60,0,0,1,60,-60z" display="none"></path><g id="node_expander4" style="cursor: pointer;" display="none"><path id="kity_path_165" fill="white" stroke="gray" d="M217.5,101.5A6,6,0,1,1,205.5,101.5A6,6,0,1,1,217.5,101.5"></path><path id="kity_path_166" fill="none" stroke="gray"></path></g><path id="node_outline5" fill="none" stroke="none" d="M222.5,93.5h109a5,5,0,0,1,5,5v6a5,5,0,0,1,-5,5h-109a5,5,0,0,1,-5,-5v-6a5,5,0,0,1,5,-5z" stroke-width="3"></path><g id="node_text5" fill="black"><text id="kity_text_87" text-rendering="inherit" font-size="10" dy=".8em" y="95" font-family="微软雅黑,Microsoft YaHei" x="222.5">单片机、计算机接口</text></g></g></g></g></svg>